<svg width="14" height="14" viewBox="0 0 14 14" fill="none" xmlns="http://www.w3.org/2000/svg">
<path id="Vector" d="M13.092 13.0919C12.8894 13.2944 12.6147 13.4082 12.3283 13.4082C12.0419 13.4082 11.7672 13.2944 11.5646 13.0919L6.72803 8.25527L1.89142 13.0919C1.68888 13.2944 1.41418 13.4082 1.12774 13.4082C0.841308 13.4082 0.566606 13.2944 0.364066 13.0919C0.161528 12.8893 0.0477412 12.6146 0.0477419 12.3282C0.0477419 12.0418 0.161527 11.7671 0.364066 11.5645L5.20068 6.72792L0.364067 1.89131C0.161527 1.68877 0.0477421 1.41407 0.0477422 1.12764C0.0477416 0.841203 0.161527 0.5665 0.364066 0.363961C0.566605 0.161422 0.841308 0.0476361 1.12774 0.0476367C1.41418 0.0476366 1.68888 0.161422 1.89142 0.363961L6.72803 5.20057L11.5646 0.363961C11.7672 0.161422 12.0419 0.0476366 12.3283 0.0476367C12.6147 0.0476361 12.8894 0.161422 13.092 0.363961C13.2945 0.5665 13.4083 0.841203 13.4083 1.12764C13.4083 1.41407 13.2945 1.68877 13.092 1.89131L8.25538 6.72792L13.092 11.5645C13.2945 11.7671 13.4083 12.0418 13.4083 12.3282C13.4083 12.6146 13.2945 12.8893 13.092 13.0919Z" fill="white"/>
</svg>
