<svg width="18" height="20" viewBox="0 0 18 20" fill="none" xmlns="http://www.w3.org/2000/svg">
<path d="M16.9199 3.6H1.07994C0.793505 3.6 0.518803 3.71379 0.316264 3.91632C0.113724 4.11886 -6.10352e-05 4.39357 -6.10352e-05 4.68C-6.10352e-05 4.96643 0.113724 5.24114 0.316264 5.44368C0.518803 5.64621 0.793505 5.76 1.07994 5.76H1.43994V18C1.43994 18.4774 1.62958 18.9352 1.96715 19.2728C2.30471 19.6104 2.76255 19.8 3.23994 19.8H14.7599C15.2373 19.8 15.6952 19.6104 16.0327 19.2728C16.3703 18.9352 16.5599 18.4774 16.5599 18V5.76H16.9199C17.2064 5.76 17.4811 5.64621 17.6836 5.44368C17.8862 5.24114 17.9999 4.96643 17.9999 4.68C17.9999 4.39357 17.8862 4.11886 17.6836 3.91632C17.4811 3.71379 17.2064 3.6 16.9199 3.6ZM14.3999 17.64H3.59994V5.76H14.3999V17.64ZM4.31994 1.08C4.31994 0.793566 4.43372 0.518864 4.63626 0.316325C4.8388 0.113785 5.11351 0 5.39994 0H12.5999C12.8864 0 13.1611 0.113785 13.3636 0.316325C13.5662 0.518864 13.6799 0.793566 13.6799 1.08C13.6799 1.36643 13.5662 1.64114 13.3636 1.84368C13.1611 2.04621 12.8864 2.16 12.5999 2.16H5.39994C5.11351 2.16 4.8388 2.04621 4.63626 1.84368C4.43372 1.64114 4.31994 1.36643 4.31994 1.08Z" fill="black"/>
</svg>
