<svg width="19" height="17" viewBox="0 0 19 17" fill="none" xmlns="http://www.w3.org/2000/svg">
<path d="M5.11716 6.43457C4.94225 6.25966 4.84399 6.02244 4.84399 5.77509C4.84399 5.52773 4.94225 5.29051 5.11716 5.1156C5.29206 4.9407 5.52928 4.84244 5.77664 4.84244C6.02399 4.84244 6.26121 4.9407 6.43612 5.1156L8.56896 7.25V1.43103C8.56896 1.18411 8.66706 0.947297 8.84166 0.772694C9.01626 0.598091 9.25307 0.5 9.5 0.5C9.74693 0.5 9.98374 0.598091 10.1583 0.772694C10.3329 0.947297 10.431 1.18411 10.431 1.43103V7.25L12.5654 5.11483C12.7403 4.93992 12.9776 4.84166 13.2249 4.84166C13.4723 4.84166 13.7095 4.93992 13.8844 5.11483C14.0593 5.28973 14.1576 5.52696 14.1576 5.77431C14.1576 6.02167 14.0593 6.25889 13.8844 6.43379L10.1603 10.1579C10.0738 10.2447 9.97098 10.3136 9.85781 10.3606C9.74464 10.4076 9.62331 10.4318 9.50078 10.4318C9.37824 10.4318 9.25691 10.4076 9.14374 10.3606C9.03057 10.3136 8.92779 10.2447 8.84129 10.1579L5.11716 6.43457ZM16.9483 8.56897H14.1552C13.9082 8.56897 13.6714 8.66706 13.4968 8.84166C13.3222 9.01626 13.2241 9.25307 13.2241 9.5C13.2241 9.74693 13.3222 9.98374 13.4968 10.1583C13.6714 10.3329 13.9082 10.431 14.1552 10.431H16.6379V14.7759H2.36207V10.431H4.84483C5.09175 10.431 5.32857 10.3329 5.50317 10.1583C5.67777 9.98374 5.77586 9.74693 5.77586 9.5C5.77586 9.25307 5.67777 9.01626 5.50317 8.84166C5.32857 8.66706 5.09175 8.56897 4.84483 8.56897H2.05172C1.64018 8.56897 1.24549 8.73245 0.954489 9.02346C0.663485 9.31446 0.5 9.70915 0.5 10.1207V15.0862C0.5 15.4978 0.663485 15.8924 0.954489 16.1834C1.24549 16.4744 1.64018 16.6379 2.05172 16.6379H16.9483C17.3598 16.6379 17.7545 16.4744 18.0455 16.1834C18.3365 15.8924 18.5 15.4978 18.5 15.0862V10.1207C18.5 9.70915 18.3365 9.31446 18.0455 9.02346C17.7545 8.73245 17.3598 8.56897 16.9483 8.56897ZM15.3966 12.6034C15.3966 12.3579 15.3237 12.1179 15.1873 11.9138C15.0509 11.7096 14.8571 11.5505 14.6302 11.4566C14.4034 11.3626 14.1538 11.338 13.913 11.3859C13.6722 11.4338 13.451 11.5521 13.2774 11.7257C13.1038 11.8993 12.9855 12.1205 12.9376 12.3613C12.8897 12.6021 12.9143 12.8517 13.0083 13.0785C13.1022 13.3053 13.2614 13.4992 13.4655 13.6356C13.6696 13.772 13.9096 13.8448 14.1552 13.8448C14.4844 13.8448 14.8002 13.714 15.033 13.4812C15.2658 13.2484 15.3966 12.9327 15.3966 12.6034Z" fill="white"/>
</svg>
