<svg width="18" height="18" viewBox="0 0 18 18" fill="none" xmlns="http://www.w3.org/2000/svg">
<path d="M17.492 4.37435L13.6256 0.507152C13.4649 0.346369 13.2741 0.218826 13.0641 0.131807C12.8541 0.0447885 12.629 0 12.4016 0C12.1743 0 11.9492 0.0447885 11.7392 0.131807C11.5291 0.218826 11.3383 0.346369 11.1776 0.507152L0.507096 11.1785C0.345799 11.3388 0.217919 11.5294 0.130872 11.7395C0.0438251 11.9495 -0.000656194 12.1747 7.31488e-06 12.4021V16.2693C7.31488e-06 16.7283 0.182346 17.1685 0.506912 17.4931C0.831477 17.8177 1.27168 18 1.73069 18H5.59789C5.82525 18.0006 6.05046 17.9561 6.2605 17.8691C6.47053 17.782 6.66121 17.6542 6.82148 17.4929L17.492 6.82154C17.8164 6.49698 17.9987 6.05686 17.9987 5.59795C17.9987 5.13903 17.8164 4.6989 17.492 4.37435ZM5.62472 13.8464L11.7686 7.70245L12.7205 8.65432L6.57659 14.7982L5.62472 13.8464ZM4.15364 12.3753L3.20176 11.4234L9.34568 5.2795L10.2976 6.23137L4.15364 12.3753ZM2.07682 13.2406L3.41896 14.5828L4.75938 15.9232H2.07682V13.2406ZM14.1916 7.18325L10.8168 3.80842L12.4038 2.22139L15.7786 5.59621L14.1916 7.18325Z" fill="white"/>
</svg>
