<svg width="17" height="18" viewBox="0 0 17 18" fill="none" xmlns="http://www.w3.org/2000/svg">
<path d="M16.4144 9.54798L9.44863 16.5087C8.49317 17.4638 7.19742 18.0002 5.84643 18C4.49544 17.9998 3.19988 17.4629 2.24475 16.5074C1.28963 15.5519 0.753179 14.2562 0.753418 12.9052C0.753657 11.5542 1.29056 10.2586 2.24603 9.30351L10.5785 0.993983C11.2155 0.357308 12.0793 -0.00023867 12.98 1.19531e-07C13.4259 0.000118356 13.8675 0.0880716 14.2794 0.258838C14.6914 0.429604 15.0657 0.679839 15.3809 0.995256C15.6962 1.31067 15.9462 1.68509 16.1168 2.09714C16.2873 2.50919 16.375 2.95079 16.3749 3.39674C16.3748 3.84269 16.2868 4.28425 16.1161 4.69621C15.9453 5.10816 15.6951 5.48245 15.3796 5.7977L15.3652 5.81128L7.2331 13.6395C7.13668 13.7323 7.02293 13.8051 6.89835 13.8539C6.77377 13.9027 6.6408 13.9264 6.50704 13.9238C6.37327 13.9212 6.24133 13.8923 6.11874 13.8387C5.99616 13.7851 5.88533 13.7079 5.79258 13.6115C5.69983 13.5151 5.62699 13.4013 5.5782 13.2767C5.52941 13.1522 5.50564 13.0192 5.50824 12.8854C5.51084 12.7517 5.53977 12.6197 5.59336 12.4971C5.64695 12.3745 5.72417 12.2637 5.82059 12.171L13.9451 4.35124C14.199 4.09571 14.3411 3.74977 14.3399 3.38952C14.3388 3.02926 14.1946 2.68421 13.9391 2.43026C13.8126 2.30452 13.6625 2.20493 13.4975 2.13717C13.3325 2.06942 13.1558 2.03483 12.9774 2.03538C12.6171 2.0365 12.2721 2.18068 12.0181 2.4362L3.6857 10.7432C3.11262 11.3165 2.79076 12.094 2.79092 12.9046C2.791 13.3059 2.87014 13.7034 3.02381 14.0742C3.17748 14.4449 3.40268 14.7818 3.68655 15.0656C3.97042 15.3494 4.3074 15.5744 4.67825 15.7279C5.0491 15.8815 5.44656 15.9605 5.84793 15.9604C6.65854 15.9602 7.43589 15.638 8.00896 15.0647L14.9747 8.10406C15.0695 8.00931 15.182 7.93415 15.3058 7.88287C15.4296 7.83159 15.5623 7.8052 15.6963 7.8052C15.8303 7.8052 15.963 7.83159 16.0868 7.88287C16.2106 7.93415 16.3231 8.00931 16.4178 8.10406C16.5126 8.19882 16.5877 8.31131 16.639 8.43511C16.6903 8.55891 16.7167 8.6916 16.7167 8.8256C16.7167 8.9596 16.6903 9.09229 16.639 9.21609C16.5877 9.33989 16.5126 9.45238 16.4178 9.54713L16.4144 9.54798Z" fill="#E2E31F"/>
</svg>
