<svg width="17" height="18" viewBox="0 0 17 18" fill="none" xmlns="http://www.w3.org/2000/svg">
<path d="M16.1044 7.63942L3.06363 0.197986C2.78849 0.0438488 2.47292 -0.0228051 2.15895 0.00690142C1.84499 0.0366079 1.54752 0.161265 1.30617 0.364269C1.06482 0.567274 0.891053 0.83899 0.808002 1.14323C0.724951 1.44747 0.736562 1.76979 0.841289 2.06727L3.21649 8.98958L0.841289 15.9305C0.758514 16.1645 0.733069 16.4149 0.767089 16.6608C0.80111 16.9067 0.893603 17.1408 1.03681 17.3435C1.18001 17.5462 1.36975 17.7116 1.5901 17.8259C1.81046 17.9401 2.05499 17.9998 2.30319 18C2.56987 17.9994 2.83196 17.9305 3.06441 17.7998L3.07139 17.7951L16.1075 10.3405C16.3465 10.2052 16.5453 10.0089 16.6837 9.77164C16.822 9.53437 16.8949 9.26463 16.8949 8.98997C16.8949 8.71531 16.822 8.44557 16.6837 8.2083C16.5453 7.97103 16.3465 7.77472 16.1075 7.63942H16.1044ZM2.86499 15.7676L4.86385 9.93004H9.13162C9.37857 9.93004 9.61541 9.83194 9.79004 9.65732C9.96466 9.48269 10.0628 9.24585 10.0628 8.99889C10.0628 8.75194 9.96466 8.5151 9.79004 8.34047C9.61541 8.16585 9.37857 8.06775 9.13162 8.06775H4.86928L2.86576 2.22944L14.7139 8.99036L2.86499 15.7676Z" fill="#E2E31F"/>
</svg>
