<svg width="21" height="18" viewBox="0 0 21 18" fill="none" xmlns="http://www.w3.org/2000/svg">
<path d="M19.0641 4.96141C20.1598 6.85871 20.4641 9.11116 19.9114 11.2312C19.3586 13.3513 17.9932 15.1683 16.1106 16.2891L16.0139 16.345C14.1737 17.4126 11.9933 17.7311 9.92461 17.2346C9.66656 17.1733 9.44342 17.012 9.30429 16.7862C9.16516 16.5604 9.12144 16.2886 9.18274 16.0305C9.24404 15.7724 9.40534 15.5493 9.63116 15.4102C9.85698 15.271 10.1288 15.2273 10.3869 15.2886C11.5981 15.5761 12.8672 15.5003 14.0356 15.0706C15.2039 14.6409 16.2198 13.8764 16.9561 12.8727C17.6925 11.8689 18.1167 10.6704 18.1757 9.42696C18.2348 8.18349 17.9261 6.95018 17.2882 5.88117C16.6503 4.81215 15.7115 3.95483 14.5891 3.41634C13.4667 2.87785 12.2105 2.68208 10.9775 2.85349C9.74447 3.02489 8.5893 3.55588 7.65635 4.38008C6.7234 5.20429 6.05403 6.28516 5.7319 7.48764C5.72794 7.50244 5.72427 7.5161 5.71917 7.53059L5.07099 9.57625L6.3058 8.86333C6.53548 8.73072 6.80844 8.69479 7.06462 8.76343C7.3208 8.83207 7.53922 8.99967 7.67183 9.22936C7.80443 9.45904 7.84037 9.732 7.77173 9.98818C7.70308 10.2444 7.53548 10.4628 7.3058 10.5954L3.8417 12.5954C3.61201 12.728 3.33906 12.7639 3.08288 12.6953C2.8267 12.6266 2.60828 12.459 2.47567 12.2294L0.475673 8.76525C0.343065 8.53557 0.30713 8.26262 0.375773 8.00644C0.444416 7.75026 0.612015 7.53184 0.841699 7.39923C1.07138 7.26662 1.34434 7.23069 1.60052 7.29933C1.8567 7.36797 2.07512 7.53557 2.20772 7.76525L3.07106 9.26059L3.80208 6.94675C4.23251 5.35747 5.12412 3.93131 6.36435 2.84829C7.60459 1.76528 9.13786 1.07394 10.7706 0.861539C12.4034 0.64914 14.0625 0.9252 15.5386 1.65488C17.0146 2.38455 18.2414 3.53514 19.0641 4.96141Z" fill="#E2E31F"/>
</svg>
