<svg width="13" height="14" viewBox="0 0 13 14" fill="none" xmlns="http://www.w3.org/2000/svg">
<path d="M9.28973 7.53042C9.36847 7.45141 9.46203 7.38871 9.56505 7.34594C9.66807 7.30316 9.77852 7.28114 9.89007 7.28114C10.0016 7.28114 10.1121 7.30316 10.2151 7.34594C10.3181 7.38871 10.4117 7.45141 10.4904 7.53042L12.7505 9.79053C12.8295 9.86927 12.8922 9.96283 12.935 10.0659C12.9778 10.1689 12.9998 10.2793 12.9998 10.3909C12.9998 10.5024 12.9778 10.6129 12.935 10.7159C12.8922 10.8189 12.8295 10.9125 12.7505 10.9912L10.4904 13.2513C10.4116 13.3302 10.318 13.3927 10.215 13.4354C10.112 13.478 10.0016 13.5 9.89007 13.5C9.77858 13.5 9.66818 13.478 9.56517 13.4354C9.46216 13.3927 9.36857 13.3302 9.28973 13.2513C9.21089 13.1725 9.14835 13.0789 9.10569 12.9759C9.06302 12.8729 9.04106 12.7625 9.04106 12.651C9.04106 12.5395 9.06302 12.4291 9.10569 12.3261C9.14835 12.2231 9.21089 12.1295 9.28973 12.0506L10.1013 11.2377L0.848917 11.2377C0.624135 11.2377 0.408559 11.1484 0.249614 10.9895C0.0906687 10.8305 0.00137449 10.615 0.00137448 10.3902C0.00137447 10.1654 0.0906687 9.94981 0.249614 9.79087C0.408559 9.63192 0.624134 9.54263 0.848917 9.54263L10.1013 9.54263L9.28761 8.72969C9.20895 8.65084 9.1466 8.55725 9.10413 8.45429C9.06166 8.35132 9.0399 8.241 9.0401 8.12962C9.04029 8.01824 9.06244 7.90799 9.10527 7.80517C9.14811 7.70236 9.21079 7.609 9.28973 7.53042ZM2.50939 0.750084L0.24928 3.0102C0.170267 3.08894 0.107574 3.1825 0.0647966 3.28552C0.0220194 3.38854 -4.37158e-07 3.49899 -4.32282e-07 3.61054C-4.27406e-07 3.72209 0.0220194 3.83254 0.0647966 3.93556C0.107574 4.03858 0.170267 4.13214 0.24928 4.21088L2.50939 6.47099C2.66861 6.63021 2.88456 6.71966 3.10974 6.71966C3.33491 6.71966 3.55086 6.63021 3.71008 6.47099C3.8693 6.31177 3.95875 6.09582 3.95875 5.87065C3.95875 5.64548 3.8693 5.42953 3.71008 5.27031L2.89714 4.45737L12.1495 4.45737C12.3743 4.45737 12.5898 4.36808 12.7488 4.20913C12.9077 4.05019 12.997 3.83461 12.997 3.60983C12.997 3.38505 12.9077 3.16947 12.7488 3.01053C12.5898 2.85158 12.3743 2.76229 12.1495 2.76229L2.89714 2.76229L3.71078 1.94936C3.87 1.79014 3.95945 1.57419 3.95945 1.34901C3.95945 1.12384 3.87 0.907893 3.71078 0.748672C3.55156 0.589452 3.33561 0.5 3.11044 0.5C2.88527 0.5 2.66932 0.589452 2.5101 0.748672L2.50939 0.750084Z" fill="#E2E31F"/>
</svg>
