<svg width="13" height="8" viewBox="0 0 13 8" fill="none" xmlns="http://www.w3.org/2000/svg">
<path d="M12.7499 1.77526L7.09964 7.42554C7.0209 7.50455 6.92733 7.56724 6.82431 7.61002C6.72129 7.6528 6.61084 7.67482 6.49929 7.67482C6.38774 7.67482 6.27729 7.6528 6.17427 7.61002C6.07125 7.56724 5.97769 7.50455 5.89895 7.42554L0.24867 1.77526C0.0894494 1.61604 -2.37257e-09 1.40009 0 1.17491C2.37257e-09 0.949742 0.0894494 0.733792 0.24867 0.574572C0.407891 0.415351 0.62384 0.325902 0.849012 0.325902C1.07418 0.325902 1.29013 0.415351 1.44935 0.574572L6.5 5.62522L11.5506 0.573866C11.7099 0.414645 11.9258 0.325195 12.151 0.325195C12.3762 0.325195 12.5921 0.414645 12.7513 0.573866C12.9105 0.733086 13 0.949036 13 1.17421C13 1.39938 12.9105 1.61533 12.7513 1.77455L12.7499 1.77526Z" fill="white"/>
</svg>
