<svg width="14" height="9" viewBox="0 0 14 9" fill="none" xmlns="http://www.w3.org/2000/svg">
<path d="M13.2499 2.20006L7.59964 7.85034C7.5209 7.92936 7.42733 7.99205 7.32431 8.03482C7.22129 8.0776 7.11084 8.09962 6.99929 8.09962C6.88774 8.09962 6.77729 8.0776 6.67427 8.03482C6.57125 7.99205 6.47769 7.92936 6.39895 7.85034L0.74867 2.20006C0.589449 2.04084 0.5 1.82489 0.5 1.59972C0.5 1.37455 0.589449 1.1586 0.74867 0.999376C0.907891 0.840156 1.12384 0.750706 1.34901 0.750706C1.57418 0.750706 1.79013 0.840156 1.94935 0.999376L7 6.05002L12.0506 0.99867C12.2099 0.83945 12.4258 0.75 12.651 0.75C12.8762 0.75 13.0921 0.83945 13.2513 0.99867C13.4105 1.15789 13.5 1.37384 13.5 1.59901C13.5 1.82418 13.4105 2.04013 13.2513 2.19936L13.2499 2.20006Z" fill="#E2E31F"/>
</svg>
