<svg width="16" height="18" viewBox="0 0 16 18" fill="none" xmlns="http://www.w3.org/2000/svg">
<path d="M15.7005 9.54798L8.71865 16.5087C7.76099 17.4638 6.46225 18.0002 5.10815 18C3.75405 17.9998 2.45551 17.4629 1.49819 16.5074C0.540863 15.5519 0.00317871 14.2562 0.00341805 12.9052C0.00365739 11.5542 0.541801 10.2586 1.49946 9.30351L9.85109 0.993983C10.4896 0.357308 11.3554 -0.00023867 12.2581 1.19531e-07C12.7051 0.000118356 13.1477 0.0880716 13.5606 0.258838C13.9735 0.429604 14.3486 0.679839 14.6646 0.995256C14.9806 1.31067 15.2312 1.68509 15.4021 2.09714C15.5731 2.50919 15.661 2.95079 15.6609 3.39674C15.6607 3.84269 15.5726 4.28425 15.4014 4.69621C15.2303 5.10816 14.9795 5.48245 14.6633 5.7977L14.6488 5.81128L6.49802 13.6395C6.40137 13.7323 6.28736 13.8051 6.16249 13.8539C6.03763 13.9027 5.90436 13.9264 5.77028 13.9238C5.63621 13.9212 5.50396 13.8923 5.38109 13.8387C5.25822 13.7851 5.14714 13.7079 5.05418 13.6115C4.96122 13.5151 4.8882 13.4013 4.83931 13.2767C4.79041 13.1522 4.76658 13.0192 4.76919 12.8854C4.7718 12.7517 4.80079 12.6197 4.8545 12.4971C4.90822 12.3745 4.98561 12.2637 5.08226 12.171L13.2254 4.35124C13.48 4.09571 13.6223 3.74977 13.6212 3.38952C13.6201 3.02926 13.4756 2.68421 13.2195 2.43026C13.0927 2.30452 12.9423 2.20493 12.7769 2.13717C12.6115 2.06942 12.4343 2.03483 12.2555 2.03538C11.8945 2.0365 11.5486 2.18068 11.2941 2.4362L2.94245 10.7432C2.36806 11.3165 2.04545 12.094 2.04561 12.9046C2.04569 13.3059 2.12501 13.7034 2.27903 14.0742C2.43306 14.4449 2.65878 14.7818 2.9433 15.0656C3.22782 15.3494 3.56558 15.5744 3.93728 15.7279C4.30899 15.8815 4.70736 15.9605 5.10966 15.9604C5.92213 15.9602 6.70127 15.638 7.27566 15.0647L14.2575 8.10406C14.3524 8.00931 14.4652 7.93415 14.5893 7.88287C14.7134 7.83159 14.8464 7.8052 14.9807 7.8052C15.115 7.8052 15.248 7.83159 15.3721 7.88287C15.4961 7.93415 15.6089 8.00931 15.7039 8.10406C15.7988 8.19882 15.8742 8.31131 15.9256 8.43511C15.977 8.55891 16.0034 8.6916 16.0034 8.8256C16.0034 8.9596 15.977 9.09229 15.9256 9.21609C15.8742 9.33989 15.7988 9.45238 15.7039 9.54713L15.7005 9.54798Z" fill="white"/>
</svg>
