<svg width="11" height="10" viewBox="0 0 11 10" fill="none" xmlns="http://www.w3.org/2000/svg">
<path d="M9.87525 0.390134C10.0215 0.536412 10.1037 0.734809 10.1037 0.941678C10.1037 1.14855 10.0215 1.34694 9.87525 1.49322L6.38214 4.98633L9.87525 8.47944C10.0215 8.62571 10.1037 8.82411 10.1037 9.03098C10.1037 9.23785 10.0215 9.43624 9.87525 9.58252C9.72897 9.7288 9.53058 9.81098 9.32371 9.81098C9.11684 9.81098 8.91844 9.7288 8.77216 9.58252L5.27906 6.08941L1.78595 9.58252C1.63967 9.7288 1.44128 9.81098 1.23441 9.81098C1.02754 9.81098 0.829142 9.7288 0.682864 9.58252C0.536585 9.43624 0.454407 9.23785 0.454407 9.03098C0.454407 8.82411 0.536585 8.62571 0.682864 8.47944L4.17597 4.98633L0.682864 1.49322C0.536585 1.34694 0.454407 1.14855 0.454407 0.941678C0.454407 0.734809 0.536585 0.536413 0.682864 0.390134C0.829142 0.243856 1.02754 0.161678 1.23441 0.161678C1.44128 0.161678 1.63967 0.243856 1.78595 0.390134L5.27906 3.88324L8.77216 0.390134C8.91844 0.243856 9.11684 0.161678 9.32371 0.161678C9.53058 0.161678 9.72897 0.243856 9.87525 0.390134Z" fill="#E2E31F"/>
</svg>
