<svg width="18" height="20" viewBox="0 0 18 20" fill="none" xmlns="http://www.w3.org/2000/svg">
<path d="M16.9234 3.6H1.08342C0.796984 3.6 0.522282 3.71379 0.319743 3.91632C0.117203 4.11886 0.00341797 4.39357 0.00341797 4.68C0.00341797 4.96643 0.117203 5.24114 0.319743 5.44368C0.522282 5.64621 0.796984 5.76 1.08342 5.76H1.44342V18C1.44342 18.4774 1.63306 18.9352 1.97063 19.2728C2.30819 19.6104 2.76603 19.8 3.24342 19.8H14.7634C15.2408 19.8 15.6986 19.6104 16.0362 19.2728C16.3738 18.9352 16.5634 18.4774 16.5634 18V5.76H16.9234C17.2099 5.76 17.4846 5.64621 17.6871 5.44368C17.8896 5.24114 18.0034 4.96643 18.0034 4.68C18.0034 4.39357 17.8896 4.11886 17.6871 3.91632C17.4846 3.71379 17.2099 3.6 16.9234 3.6ZM14.4034 17.64H3.60342V5.76H14.4034V17.64ZM4.32342 1.08C4.32342 0.793566 4.4372 0.518864 4.63974 0.316325C4.84228 0.113785 5.11698 0 5.40342 0H12.6034C12.8899 0 13.1646 0.113785 13.3671 0.316325C13.5696 0.518864 13.6834 0.793566 13.6834 1.08C13.6834 1.36643 13.5696 1.64114 13.3671 1.84368C13.1646 2.04621 12.8899 2.16 12.6034 2.16H5.40342C5.11698 2.16 4.84228 2.04621 4.63974 1.84368C4.4372 1.64114 4.32342 1.36643 4.32342 1.08Z" fill="white"/>
</svg>
