<svg width="18" height="16" viewBox="0 0 18 16" fill="none" xmlns="http://www.w3.org/2000/svg">
<path d="M10.3333 5C10.3333 4.73629 10.4115 4.47851 10.558 4.25924C10.7045 4.03997 10.9128 3.86908 11.1564 3.76816C11.4001 3.66724 11.6681 3.64084 11.9268 3.69229C12.1854 3.74373 12.423 3.87072 12.6095 4.05719C12.7959 4.24366 12.9229 4.48124 12.9744 4.73988C13.0258 4.99852 12.9994 5.26661 12.8985 5.51024C12.7976 5.75388 12.6267 5.96212 12.4074 6.10863C12.1882 6.25513 11.9304 6.33333 11.6667 6.33333C11.313 6.33333 10.9739 6.19286 10.7239 5.94281C10.4738 5.69276 10.3333 5.35362 10.3333 5ZM18 1.66667V13.6667C18 14.1087 17.8244 14.5326 17.5118 14.8452C17.1993 15.1577 16.7754 15.3333 16.3333 15.3333H1.66667C1.22464 15.3333 0.800716 15.1577 0.488155 14.8452C0.175595 14.5326 0 14.1087 0 13.6667V1.66667C0 1.22464 0.175595 0.800716 0.488155 0.488155C0.800716 0.175595 1.22464 0 1.66667 0H16.3333C16.7754 0 17.1993 0.175595 17.5118 0.488155C17.8244 0.800716 18 1.22464 18 1.66667ZM2 2V8.64333L4.82167 5.82167C5.13421 5.50921 5.55806 5.33369 6 5.33369C6.44194 5.33369 6.86579 5.50921 7.17833 5.82167L10.6092 9.25L12.0408 7.81917C12.3534 7.50671 12.7772 7.33119 13.2192 7.33119C13.6611 7.33119 14.085 7.50671 14.3975 7.81917L16 9.42417V2H2ZM2 13.3333H11.8617L6 7.47167L2 11.4717V13.3333ZM16 13.3333V12.25L13.2192 9.46917L12.0233 10.6667L14.69 13.3333H16Z" fill="black"/>
</svg>
