<svg width="18" height="19" viewBox="0 0 18 19" fill="none" xmlns="http://www.w3.org/2000/svg">
<path d="M1.83655 9.18378C2.12883 9.18378 2.40914 9.06767 2.61582 8.861C2.82249 8.65432 2.9386 8.37401 2.9386 8.08173V2.20411H9.91827V6.61232C9.91827 6.9046 10.0344 7.18492 10.2411 7.39159C10.4477 7.59827 10.728 7.71437 11.0203 7.71437H15.4285V8.08173C15.4285 8.37401 15.5447 8.65432 15.7513 8.861C15.958 9.06767 16.2383 9.18378 16.5306 9.18378C16.8229 9.18378 17.1032 9.06767 17.3099 8.861C17.5165 8.65432 17.6326 8.37401 17.6326 8.08173V6.24497C17.6326 5.95292 17.5167 5.67281 17.3103 5.46619L12.1674 0.323269C12.065 0.220795 11.9435 0.139499 11.8097 0.0840299C11.6759 0.0285609 11.5325 6.75244e-06 11.3877 0H2.57125C2.08411 0 1.61693 0.193515 1.27247 0.537973C0.928009 0.882432 0.734494 1.34962 0.734494 1.83676V8.08173C0.734494 8.37401 0.850603 8.65432 1.05728 8.861C1.26395 9.06767 1.54426 9.18378 1.83655 9.18378ZM14.2347 5.51027H12.1224V3.398L14.2347 5.51027ZM5.48986 16.2369C5.45447 16.5695 5.34607 16.8901 5.17239 17.1758C4.9987 17.4616 4.76403 17.7055 4.48515 17.89C3.93412 18.2574 3.26646 18.363 2.67227 18.363C2.16877 18.3597 1.66779 18.2915 1.18174 18.16C1.04001 18.1232 0.907035 18.0585 0.790586 17.9697C0.674138 17.8809 0.576552 17.7698 0.50353 17.6429C0.430508 17.516 0.383515 17.3758 0.365296 17.2305C0.347077 17.0852 0.357997 16.9377 0.39742 16.7967C0.436842 16.6556 0.503976 16.5239 0.594898 16.4091C0.685819 16.2943 0.798707 16.1988 0.926963 16.1281C1.05522 16.0574 1.19627 16.013 1.34188 15.9975C1.48749 15.982 1.63474 15.9956 1.77502 16.0376C2.40135 16.2075 3.15258 16.1855 3.28024 16.0431C3.28989 16.0225 3.29639 16.0005 3.29952 15.9779C3.12136 15.865 2.67319 15.7355 2.39217 15.6538C1.89716 15.5105 1.38195 15.3626 0.945721 15.0788C0.245917 14.627 -0.083781 13.9355 0.018159 13.1328C0.0521651 12.8057 0.157645 12.49 0.327136 12.2082C0.496626 11.9263 0.725986 11.6852 0.998987 11.5018C1.55644 11.1261 2.30033 10.9673 3.21228 11.027C3.58474 11.0534 3.95415 11.1127 4.31617 11.2042C4.59568 11.2813 4.83353 11.4655 4.97818 11.7168C5.12282 11.9681 5.16261 12.2663 5.0889 12.5467C5.0152 12.8271 4.83395 13.0672 4.58444 13.2149C4.33493 13.3626 4.03727 13.406 3.75596 13.3358C3.17279 13.1861 2.50605 13.1971 2.28012 13.3055C2.51826 13.3974 2.76105 13.4768 3.00748 13.5433C3.50983 13.6884 4.07923 13.8528 4.55035 14.1697C5.26485 14.6509 5.6019 15.3856 5.48986 16.2369ZM11.6907 12.4899L9.85399 17.6329C9.7775 17.8469 9.63673 18.032 9.45096 18.1629C9.26518 18.2938 9.04348 18.364 8.81622 18.364C8.58896 18.364 8.36726 18.2938 8.18148 18.1629C7.99571 18.032 7.85494 17.8469 7.77845 17.6329L5.9417 12.4899C5.8855 12.3519 5.85789 12.2039 5.86052 12.0549C5.86315 11.9059 5.89598 11.759 5.95702 11.623C6.01805 11.4871 6.10603 11.3649 6.21563 11.2639C6.32523 11.1629 6.45417 11.0852 6.59465 11.0355C6.73514 10.9858 6.88425 10.9651 7.03298 10.9746C7.1817 10.9841 7.32694 11.0237 7.45992 11.091C7.5929 11.1583 7.71085 11.2519 7.80664 11.366C7.90243 11.4802 7.97407 11.6126 8.01723 11.7552L8.81622 13.9869L9.61521 11.7552C9.65837 11.6126 9.73001 11.4802 9.8258 11.366C9.92159 11.2519 10.0395 11.1583 10.1725 11.091C10.3055 11.0237 10.4507 10.9841 10.5995 10.9746C10.7482 10.9651 10.8973 10.9858 11.0378 11.0355C11.1783 11.0852 11.3072 11.1629 11.4168 11.2639C11.5264 11.3649 11.6144 11.4871 11.6754 11.623C11.7365 11.759 11.7693 11.9059 11.7719 12.0549C11.7746 12.2039 11.7469 12.3519 11.6907 12.4899ZM18 15.4287V16.6107C18.0001 16.8947 17.8905 17.1678 17.6942 17.373C17.4042 17.6844 17.0537 17.9332 16.6641 18.1043C16.2745 18.2753 15.854 18.3649 15.4285 18.3676C13.6056 18.3676 12.1224 16.72 12.1224 14.694C12.1224 12.6681 13.6056 11.0205 15.4285 11.0205C16.0417 11.0223 16.6402 11.2078 17.1468 11.5532C17.2703 11.6325 17.3768 11.7358 17.4598 11.8568C17.5429 11.9779 17.6009 12.1143 17.6306 12.2581C17.6602 12.4019 17.6607 12.5502 17.6323 12.6942C17.6038 12.8382 17.5468 12.9751 17.4647 13.0968C17.3826 13.2185 17.277 13.3225 17.1541 13.4029C17.0312 13.4832 16.8935 13.5381 16.7491 13.5645C16.6047 13.5909 16.4564 13.5881 16.3131 13.5564C16.1697 13.5247 16.0342 13.4647 15.9144 13.3798C15.7718 13.2803 15.6024 13.2262 15.4285 13.2246C14.8316 13.2246 14.3265 13.8978 14.3265 14.694C14.3265 15.4903 14.8316 16.1635 15.4285 16.1635C15.5127 16.1633 15.5963 16.1503 15.6765 16.1249C15.5449 15.9633 15.4617 15.7677 15.4367 15.5608C15.4118 15.3539 15.446 15.1442 15.5354 14.9559C15.6248 14.7677 15.7658 14.6086 15.9419 14.4973C16.1181 14.3859 16.3222 14.3267 16.5306 14.3267H16.8979C17.1902 14.3267 17.4705 14.4428 17.6772 14.6495C17.8839 14.8562 18 15.1365 18 15.4287Z" fill="black"/>
</svg>
